<svg xmlns="http://www.w3.org/2000/svg" xmlns:xlink="http://www.w3.org/1999/xlink" width="2000" zoomAndPan="magnify" viewBox="0 0 1500 1499.999933" height="2000" preserveAspectRatio="xMidYMid meet" version="1.0"><defs><g/><clipPath id="09d5a51682"><path d="M 14.386719 13.394531 L 1486.582031 13.394531 L 1486.582031 1485.59375 L 14.386719 1485.59375 Z M 14.386719 13.394531 " clip-rule="nonzero"/></clipPath></defs><g clip-path="url(#09d5a51682)"><path fill="#ff3131" d="M 1486.582031 749.496094 C 1486.582031 761.542969 1486.285156 773.582031 1485.695312 785.613281 C 1485.105469 797.644531 1484.21875 809.65625 1483.039062 821.644531 C 1481.855469 833.632812 1480.382812 845.585938 1478.613281 857.503906 C 1476.847656 869.417969 1474.789062 881.285156 1472.4375 893.101562 C 1470.089844 904.914062 1467.449219 916.664062 1464.523438 928.351562 C 1461.59375 940.039062 1458.382812 951.644531 1454.886719 963.171875 C 1451.390625 974.699219 1447.609375 986.136719 1443.550781 997.476562 C 1439.496094 1008.820312 1435.160156 1020.058594 1430.550781 1031.1875 C 1425.941406 1042.316406 1421.058594 1053.328125 1415.910156 1064.21875 C 1410.757812 1075.105469 1405.34375 1085.863281 1399.664062 1096.488281 C 1393.984375 1107.113281 1388.050781 1117.589844 1381.855469 1127.925781 C 1375.664062 1138.257812 1369.21875 1148.433594 1362.527344 1158.449219 C 1355.835938 1168.464844 1348.898438 1178.3125 1341.722656 1187.988281 C 1334.546875 1197.664062 1327.136719 1207.15625 1319.496094 1216.46875 C 1311.851562 1225.78125 1303.988281 1234.902344 1295.898438 1243.828125 C 1287.804688 1252.753906 1279.503906 1261.476562 1270.984375 1269.996094 C 1262.464844 1278.511719 1253.742188 1286.816406 1244.816406 1294.90625 C 1235.890625 1302.996094 1226.773438 1310.863281 1217.460938 1318.507812 C 1208.148438 1326.148438 1198.652344 1333.558594 1188.976562 1340.734375 C 1179.300781 1347.910156 1169.453125 1354.84375 1159.4375 1361.539062 C 1149.421875 1368.230469 1139.246094 1374.671875 1128.914062 1380.867188 C 1118.582031 1387.058594 1108.101562 1392.996094 1097.476562 1398.675781 C 1086.855469 1404.355469 1076.097656 1409.769531 1065.207031 1414.917969 C 1054.316406 1420.070312 1043.304688 1424.949219 1032.175781 1429.558594 C 1021.046875 1434.171875 1009.808594 1438.503906 998.46875 1442.5625 C 987.125 1446.621094 975.691406 1450.398438 964.160156 1453.898438 C 952.632812 1457.394531 941.027344 1460.605469 929.339844 1463.53125 C 917.65625 1466.460938 905.90625 1469.097656 894.089844 1471.449219 C 882.273438 1473.800781 870.410156 1475.859375 858.492188 1477.625 C 846.574219 1479.394531 834.621094 1480.867188 822.632812 1482.046875 C 810.644531 1483.230469 798.636719 1484.113281 786.601562 1484.707031 C 774.570312 1485.296875 762.53125 1485.59375 750.484375 1485.59375 C 738.4375 1485.59375 726.398438 1485.296875 714.367188 1484.707031 C 702.332031 1484.113281 690.324219 1483.230469 678.332031 1482.046875 C 666.34375 1480.867188 654.390625 1479.394531 642.476562 1477.625 C 630.558594 1475.859375 618.695312 1473.800781 606.878906 1471.449219 C 595.0625 1469.097656 583.3125 1466.460938 571.625 1463.53125 C 559.941406 1460.605469 548.332031 1457.394531 536.804688 1453.898438 C 525.277344 1450.398438 513.84375 1446.621094 502.5 1442.5625 C 491.15625 1438.503906 479.921875 1434.171875 468.792969 1429.558594 C 457.660156 1424.949219 446.652344 1420.070312 435.761719 1414.917969 C 424.871094 1409.769531 414.113281 1404.355469 403.488281 1398.675781 C 392.867188 1392.996094 382.386719 1387.058594 372.054688 1380.867188 C 361.722656 1374.671875 351.546875 1368.230469 341.53125 1361.539062 C 331.511719 1354.84375 321.667969 1347.910156 311.992188 1340.734375 C 302.316406 1333.558594 292.820312 1326.148438 283.507812 1318.507812 C 274.195312 1310.863281 265.078125 1302.996094 256.152344 1294.90625 C 247.222656 1286.816406 238.503906 1278.511719 229.984375 1269.996094 C 221.464844 1261.476562 213.160156 1252.753906 205.070312 1243.828125 C 196.980469 1234.902344 189.113281 1225.78125 181.472656 1216.46875 C 173.828125 1207.15625 166.421875 1197.664062 159.246094 1187.988281 C 152.066406 1178.3125 145.132812 1168.464844 138.441406 1158.449219 C 131.746094 1148.433594 125.304688 1138.257812 119.113281 1127.925781 C 112.917969 1117.589844 106.980469 1107.113281 101.304688 1096.488281 C 95.625 1085.863281 90.210938 1075.105469 85.058594 1064.21875 C 79.910156 1053.328125 75.027344 1042.316406 70.417969 1031.1875 C 65.808594 1020.058594 61.472656 1008.820312 57.414062 997.476562 C 53.355469 986.136719 49.578125 974.699219 46.082031 963.171875 C 42.585938 951.644531 39.371094 940.039062 36.445312 928.351562 C 33.519531 916.664062 30.878906 904.914062 28.53125 893.101562 C 26.179688 881.285156 24.121094 869.417969 22.351562 857.503906 C 20.585938 845.585938 19.109375 833.632812 17.929688 821.644531 C 16.75 809.65625 15.863281 797.644531 15.273438 785.613281 C 14.679688 773.582031 14.386719 761.542969 14.386719 749.496094 C 14.386719 737.449219 14.679688 725.410156 15.273438 713.375 C 15.863281 701.34375 16.75 689.332031 17.929688 677.34375 C 19.109375 665.355469 20.585938 653.402344 22.351562 641.488281 C 24.121094 629.570312 26.179688 617.703125 28.53125 605.890625 C 30.878906 594.074219 33.519531 582.324219 36.445312 570.636719 C 39.371094 558.953125 42.585938 547.34375 46.082031 535.816406 C 49.578125 524.289062 53.355469 512.851562 57.414062 501.511719 C 61.472656 490.167969 65.808594 478.933594 70.417969 467.800781 C 75.027344 456.671875 79.910156 445.664062 85.058594 434.773438 C 90.210938 423.882812 95.625 413.125 101.304688 402.5 C 106.980469 391.875 112.917969 381.398438 119.113281 371.0625 C 125.304688 360.730469 131.746094 350.558594 138.441406 340.539062 C 145.132812 330.523438 152.066406 320.675781 159.246094 311 C 166.421875 301.324219 173.828125 291.832031 181.472656 282.519531 C 189.113281 273.207031 196.980469 264.085938 205.070312 255.160156 C 213.160156 246.234375 221.464844 237.511719 229.984375 228.996094 C 238.503906 220.476562 247.222656 212.171875 256.152344 204.082031 C 265.078125 195.992188 274.195312 188.125 283.507812 180.484375 C 292.820312 172.839844 302.316406 165.429688 311.992188 158.253906 C 321.667969 151.078125 331.511719 144.144531 341.53125 137.453125 C 351.546875 130.757812 361.722656 124.316406 372.054688 118.121094 C 382.386719 111.929688 392.867188 105.992188 403.488281 100.3125 C 414.113281 94.636719 424.871094 89.21875 435.761719 84.070312 C 446.652344 78.917969 457.660156 74.039062 468.792969 69.429688 C 479.921875 64.820312 491.15625 60.484375 502.5 56.425781 C 513.84375 52.367188 525.277344 48.589844 536.804688 45.09375 C 548.332031 41.59375 559.941406 38.382812 571.625 35.457031 C 583.3125 32.527344 595.0625 29.890625 606.878906 27.539062 C 618.695312 25.191406 630.558594 23.132812 642.476562 21.363281 C 654.390625 19.597656 666.34375 18.121094 678.332031 16.941406 C 690.324219 15.761719 702.332031 14.875 714.367188 14.28125 C 726.398438 13.691406 738.4375 13.394531 750.484375 13.394531 C 762.53125 13.394531 774.570312 13.691406 786.601562 14.28125 C 798.636719 14.875 810.644531 15.761719 822.632812 16.941406 C 834.621094 18.121094 846.574219 19.597656 858.492188 21.363281 C 870.410156 23.132812 882.273438 25.191406 894.089844 27.539062 C 905.90625 29.890625 917.65625 32.527344 929.339844 35.457031 C 941.027344 38.382812 952.632812 41.59375 964.160156 45.09375 C 975.691406 48.589844 987.125 52.367188 998.46875 56.425781 C 1009.808594 60.484375 1021.046875 64.820312 1032.175781 69.429688 C 1043.304688 74.039062 1054.316406 78.917969 1065.207031 84.070312 C 1076.097656 89.21875 1086.855469 94.636719 1097.476562 100.3125 C 1108.101562 105.992188 1118.582031 111.929688 1128.914062 118.121094 C 1139.246094 124.316406 1149.421875 130.757812 1159.4375 137.453125 C 1169.453125 144.144531 1179.300781 151.078125 1188.976562 158.253906 C 1198.652344 165.429688 1208.148438 172.839844 1217.460938 180.484375 C 1226.773438 188.125 1235.890625 195.992188 1244.816406 204.082031 C 1253.742188 212.171875 1262.464844 220.476562 1270.984375 228.996094 C 1279.503906 237.511719 1287.804688 246.234375 1295.898438 255.160156 C 1303.988281 264.085938 1311.851562 273.207031 1319.496094 282.519531 C 1327.136719 291.832031 1334.546875 301.324219 1341.722656 311 C 1348.898438 320.675781 1355.835938 330.523438 1362.527344 340.539062 C 1369.21875 350.558594 1375.664062 360.730469 1381.855469 371.0625 C 1388.050781 381.398438 1393.984375 391.875 1399.664062 402.5 C 1405.34375 413.125 1410.757812 423.882812 1415.910156 434.773438 C 1421.058594 445.664062 1425.941406 456.671875 1430.550781 467.800781 C 1435.160156 478.933594 1439.496094 490.167969 1443.550781 501.511719 C 1447.609375 512.851562 1451.390625 524.289062 1454.886719 535.816406 C 1458.382812 547.34375 1461.59375 558.953125 1464.523438 570.636719 C 1467.449219 582.324219 1470.089844 594.074219 1472.4375 605.890625 C 1474.789062 617.703125 1476.847656 629.570312 1478.613281 641.488281 C 1480.382812 653.402344 1481.855469 665.355469 1483.039062 677.34375 C 1484.21875 689.332031 1485.105469 701.34375 1485.695312 713.375 C 1486.285156 725.40625 1486.582031 737.449219 1486.582031 749.496094 Z M 1486.582031 749.496094 " fill-opacity="1" fill-rule="nonzero"/></g><path fill="#ffffff" d="M 735.738281 1413.632812 C 735.445312 1413.632812 735.445312 1413.632812 735.738281 1413.632812 L 733.96875 1413.632812 C 727.480469 1413.339844 722.171875 1408.03125 722.46875 1401.542969 C 722.761719 1395.054688 727.777344 1390.042969 734.265625 1390.042969 C 734.265625 1390.042969 734.558594 1390.042969 734.558594 1390.042969 L 736.035156 1390.042969 C 742.519531 1390.335938 747.828125 1395.644531 747.535156 1402.132812 C 747.238281 1408.621094 741.929688 1413.632812 735.738281 1413.632812 Z M 795.308594 1412.160156 C 789.117188 1412.160156 783.808594 1407.144531 783.515625 1400.953125 C 783.21875 1394.464844 788.234375 1388.863281 794.71875 1388.273438 L 796.195312 1388.273438 C 802.683594 1387.683594 808.582031 1392.695312 808.875 1399.183594 C 809.464844 1405.671875 804.453125 1411.570312 797.964844 1411.863281 L 796.488281 1411.863281 C 795.605469 1412.160156 795.605469 1412.160156 795.308594 1412.160156 Z M 674.691406 1409.503906 C 674.101562 1409.503906 673.808594 1409.503906 673.21875 1409.503906 L 671.742188 1409.210938 C 665.253906 1408.324219 660.535156 1402.429688 661.421875 1395.941406 C 662.304688 1389.453125 668.203125 1384.734375 674.691406 1385.617188 L 676.167969 1385.914062 C 682.65625 1386.796875 687.371094 1392.695312 686.78125 1399.183594 C 685.898438 1405.082031 680.589844 1409.503906 674.691406 1409.503906 Z M 856.0625 1405.378906 C 850.457031 1405.378906 845.148438 1401.25 844.265625 1395.351562 C 843.085938 1388.863281 847.507812 1382.667969 853.996094 1381.785156 L 855.472656 1381.488281 C 861.960938 1380.308594 868.152344 1384.734375 869.039062 1391.222656 C 869.921875 1397.710938 865.792969 1403.902344 859.304688 1404.789062 L 857.832031 1405.082031 C 857.242188 1405.378906 856.652344 1405.378906 856.0625 1405.378906 Z M 614.234375 1399.480469 C 613.351562 1399.480469 612.464844 1399.480469 611.875 1399.183594 L 610.402344 1398.890625 C 603.914062 1397.414062 599.785156 1391.222656 601.257812 1384.734375 C 602.734375 1378.246094 608.925781 1374.117188 615.414062 1375.589844 L 616.890625 1375.886719 C 623.378906 1377.359375 627.507812 1383.554688 626.03125 1390.042969 C 624.851562 1395.644531 619.839844 1399.480469 614.234375 1399.480469 Z M 915.929688 1392.695312 C 910.621094 1392.695312 905.902344 1389.15625 904.425781 1383.847656 C 902.953125 1377.359375 906.785156 1370.871094 912.980469 1369.398438 L 914.160156 1369.101562 C 920.648438 1367.332031 927.136719 1371.167969 928.609375 1377.65625 C 930.378906 1384.144531 926.546875 1390.632812 920.058594 1392.105469 L 918.582031 1392.402344 C 917.699219 1392.695312 916.8125 1392.695312 915.929688 1392.695312 Z M 555.253906 1384.144531 C 554.074219 1384.144531 552.894531 1383.847656 551.714844 1383.554688 L 550.535156 1383.257812 C 544.339844 1381.195312 540.800781 1374.410156 542.570312 1368.21875 C 544.636719 1362.023438 551.125 1358.484375 557.316406 1360.550781 L 558.792969 1360.84375 C 564.984375 1362.910156 568.523438 1369.398438 566.753906 1375.886719 C 564.984375 1380.898438 560.265625 1384.144531 555.253906 1384.144531 Z M 974.027344 1374.410156 C 969.308594 1374.410156 964.589844 1371.460938 962.820312 1366.449219 C 960.460938 1360.253906 963.703125 1353.472656 969.898438 1351.113281 L 971.371094 1350.523438 C 977.566406 1348.164062 984.347656 1351.40625 986.707031 1357.601562 C 989.066406 1363.792969 985.824219 1370.578125 979.628906 1372.9375 L 978.15625 1373.527344 C 976.976562 1374.117188 975.5 1374.410156 974.027344 1374.410156 Z M 497.746094 1362.910156 C 496.269531 1362.910156 494.796875 1362.613281 493.027344 1362.023438 L 491.550781 1361.433594 C 485.359375 1358.78125 482.703125 1351.996094 485.359375 1345.804688 C 488.011719 1339.613281 494.796875 1336.957031 500.988281 1339.613281 L 502.167969 1340.203125 C 508.363281 1342.855469 511.015625 1349.640625 508.65625 1355.832031 C 506.886719 1360.253906 502.464844 1362.910156 497.746094 1362.910156 Z M 1030.648438 1350.820312 C 1026.226562 1350.820312 1022.097656 1348.460938 1020.03125 1344.035156 C 1017.082031 1338.136719 1019.738281 1331.058594 1025.636719 1328.109375 L 1027.109375 1327.519531 C 1033.007812 1324.570312 1040.085938 1327.226562 1043.035156 1333.125 C 1045.984375 1339.023438 1043.332031 1346.101562 1037.433594 1349.050781 L 1036.253906 1349.640625 C 1034.1875 1350.523438 1032.417969 1350.820312 1030.648438 1350.820312 Z M 442.597656 1336.664062 C 440.828125 1336.664062 438.761719 1336.074219 436.992188 1335.1875 L 435.8125 1334.597656 C 429.914062 1331.355469 427.851562 1324.277344 430.800781 1318.378906 C 434.042969 1312.480469 441.121094 1310.414062 447.019531 1313.363281 L 448.496094 1313.953125 C 454.394531 1317.199219 456.457031 1324.277344 453.214844 1330.175781 C 450.855469 1334.304688 446.726562 1336.664062 442.597656 1336.664062 Z M 1084.324219 1321.917969 C 1080.195312 1321.917969 1076.359375 1319.851562 1074 1316.3125 C 1070.460938 1310.710938 1072.230469 1303.335938 1078.128906 1300.09375 L 1079.605469 1299.210938 C 1085.207031 1295.964844 1092.582031 1297.734375 1095.824219 1303.335938 C 1099.070312 1308.941406 1097.300781 1316.3125 1091.695312 1319.558594 L 1090.515625 1320.148438 C 1088.746094 1321.328125 1086.683594 1321.917969 1084.324219 1321.917969 Z M 390.101562 1305.105469 C 387.742188 1305.105469 385.679688 1304.515625 383.613281 1303.042969 L 382.433594 1302.15625 C 376.832031 1298.617188 375.355469 1291.246094 379.191406 1285.644531 C 382.730469 1280.039062 390.101562 1278.566406 395.707031 1282.398438 L 396.886719 1283.285156 C 402.488281 1286.824219 403.964844 1294.195312 400.128906 1299.796875 C 397.769531 1303.335938 393.9375 1305.105469 390.101562 1305.105469 Z M 1135.34375 1288.296875 C 1131.804688 1288.296875 1127.96875 1286.527344 1125.90625 1283.578125 C 1122.070312 1278.269531 1122.957031 1270.898438 1128.265625 1267.0625 L 1129.445312 1266.179688 C 1134.753906 1262.34375 1142.125 1263.523438 1145.960938 1268.832031 C 1149.792969 1274.140625 1148.613281 1281.515625 1143.304688 1285.347656 L 1142.125 1286.234375 C 1140.355469 1287.414062 1137.996094 1288.296875 1135.34375 1288.296875 Z M 340.851562 1269.128906 C 338.199219 1269.128906 335.542969 1268.242188 333.480469 1266.472656 L 332.300781 1265.589844 C 327.285156 1261.460938 326.402344 1254.085938 330.53125 1248.777344 C 334.660156 1243.765625 342.03125 1242.882812 347.339844 1247.007812 L 348.519531 1247.894531 C 353.535156 1252.023438 354.417969 1259.394531 350.289062 1264.703125 C 347.636719 1267.652344 344.097656 1269.128906 340.851562 1269.128906 Z M 1183.117188 1249.664062 C 1179.875 1249.664062 1176.628906 1248.1875 1174.269531 1245.832031 C 1169.847656 1240.816406 1170.140625 1233.445312 1175.15625 1229.019531 L 1176.335938 1228.136719 C 1181.347656 1223.710938 1188.722656 1224.300781 1193.144531 1229.019531 C 1197.570312 1234.035156 1196.980469 1241.40625 1192.261719 1245.832031 L 1191.375 1246.714844 C 1188.722656 1248.777344 1185.773438 1249.664062 1183.117188 1249.664062 Z M 295.140625 1228.429688 C 292.191406 1228.429688 289.242188 1227.25 286.882812 1225.1875 L 285.703125 1224.007812 C 280.984375 1219.289062 280.984375 1211.914062 285.703125 1207.195312 C 290.421875 1202.476562 297.796875 1202.476562 302.515625 1207.195312 L 303.398438 1208.082031 C 308.117188 1212.800781 308.117188 1220.171875 303.695312 1224.890625 C 301.335938 1227.25 298.089844 1228.429688 295.140625 1228.429688 Z M 1226.765625 1207.195312 C 1223.816406 1207.195312 1220.867188 1206.015625 1218.804688 1203.953125 C 1214.085938 1199.527344 1213.789062 1191.859375 1218.214844 1187.144531 L 1219.394531 1185.964844 C 1223.816406 1181.246094 1231.484375 1180.949219 1236.203125 1185.375 C 1240.921875 1189.796875 1241.214844 1197.464844 1236.792969 1202.183594 L 1235.90625 1203.363281 C 1233.253906 1206.015625 1230.007812 1207.195312 1226.765625 1207.195312 Z M 253.265625 1183.898438 C 250.019531 1183.898438 246.480469 1182.425781 244.121094 1179.769531 L 243.238281 1178.589844 C 239.109375 1173.578125 239.699219 1165.910156 244.710938 1161.78125 C 249.726562 1157.652344 257.097656 1158.242188 261.519531 1163.253906 L 262.40625 1164.433594 C 266.535156 1169.449219 265.945312 1176.820312 260.929688 1181.246094 C 258.867188 1182.71875 255.917969 1183.898438 253.265625 1183.898438 Z M 1266.578125 1160.601562 C 1263.925781 1160.601562 1261.566406 1159.714844 1259.207031 1158.242188 C 1253.898438 1154.113281 1253.011719 1146.738281 1257.140625 1141.429688 L 1258.027344 1140.25 C 1262.15625 1134.945312 1269.527344 1134.058594 1274.835938 1138.1875 C 1280.144531 1142.316406 1281.027344 1149.6875 1276.898438 1154.996094 L 1276.015625 1156.175781 C 1273.65625 1159.125 1270.117188 1160.601562 1266.578125 1160.601562 Z M 215.808594 1135.238281 C 211.976562 1135.238281 208.4375 1133.46875 206.078125 1130.226562 L 205.191406 1129.046875 C 201.359375 1123.738281 202.832031 1116.363281 208.140625 1112.53125 C 213.449219 1108.695312 220.824219 1110.171875 224.65625 1115.480469 L 225.542969 1116.660156 C 229.375 1121.96875 227.902344 1129.339844 222.59375 1133.175781 C 220.824219 1134.648438 218.167969 1135.238281 215.808594 1135.238281 Z M 1301.671875 1110.761719 C 1299.609375 1110.761719 1297.25 1110.171875 1295.480469 1108.992188 C 1289.875 1105.453125 1288.105469 1098.078125 1291.644531 1092.476562 L 1292.53125 1091.296875 C 1296.070312 1085.691406 1303.441406 1084.21875 1309.046875 1087.757812 C 1314.648438 1091.296875 1316.125 1098.667969 1312.585938 1104.273438 L 1311.699219 1105.453125 C 1309.339844 1108.695312 1305.507812 1110.761719 1301.671875 1110.761719 Z M 183.371094 1083.628906 C 179.242188 1083.628906 175.113281 1081.566406 173.046875 1077.730469 L 172.457031 1076.550781 C 169.214844 1070.949219 171.277344 1063.574219 176.882812 1060.332031 C 182.484375 1057.085938 189.859375 1059.152344 193.101562 1064.753906 L 193.691406 1065.933594 C 196.9375 1071.539062 194.871094 1078.910156 189.269531 1082.15625 C 187.203125 1083.332031 185.140625 1083.628906 183.371094 1083.628906 Z M 1332.046875 1057.382812 C 1330.277344 1057.382812 1328.507812 1057.085938 1326.742188 1056.203125 C 1320.84375 1053.253906 1318.484375 1046.175781 1321.433594 1040.277344 L 1322.023438 1039.097656 C 1324.972656 1033.199219 1332.046875 1030.839844 1337.945312 1033.789062 C 1343.84375 1036.738281 1346.203125 1043.816406 1343.253906 1049.714844 L 1342.664062 1051.1875 C 1340.601562 1055.023438 1336.175781 1057.382812 1332.046875 1057.382812 Z M 155.648438 1029.367188 C 151.222656 1029.367188 146.800781 1026.710938 144.738281 1022.289062 L 144.148438 1020.8125 C 141.492188 1014.914062 144.148438 1007.835938 150.042969 1005.183594 C 155.941406 1002.527344 163.019531 1005.183594 165.675781 1011.082031 L 166.265625 1012.554688 C 168.917969 1018.453125 166.265625 1025.53125 160.367188 1028.1875 C 158.890625 1028.777344 157.121094 1029.367188 155.648438 1029.367188 Z M 1357.117188 1001.9375 C 1355.640625 1001.9375 1354.167969 1001.644531 1352.691406 1001.054688 C 1346.5 998.695312 1343.550781 991.617188 1345.910156 985.71875 L 1346.5 984.242188 C 1348.859375 978.050781 1355.9375 975.101562 1361.835938 977.460938 C 1368.027344 979.820312 1370.976562 986.898438 1368.617188 992.796875 L 1368.027344 994.269531 C 1366.257812 998.988281 1361.835938 1001.9375 1357.117188 1001.9375 Z M 132.941406 972.449219 C 127.925781 972.449219 123.503906 969.203125 121.734375 964.484375 L 121.144531 963.011719 C 119.078125 956.816406 122.324219 950.035156 128.515625 947.96875 C 134.710938 945.90625 141.492188 949.148438 143.558594 955.34375 L 144.148438 956.816406 C 146.210938 963.011719 142.96875 969.792969 136.773438 971.859375 C 135.59375 972.152344 134.414062 972.449219 132.941406 972.449219 Z M 1376.875 943.839844 C 1375.695312 943.839844 1374.515625 943.546875 1373.632812 943.25 C 1367.4375 941.480469 1363.605469 934.699219 1365.375 928.503906 L 1365.667969 927.03125 C 1367.4375 920.839844 1374.222656 917.003906 1380.414062 919.070312 C 1386.605469 920.839844 1390.441406 927.621094 1388.375 933.8125 L 1388.082031 935.289062 C 1386.902344 940.597656 1382.183594 943.839844 1376.875 943.839844 Z M 116.128906 913.761719 C 110.820312 913.761719 105.808594 910.222656 104.628906 904.617188 L 104.332031 903.144531 C 102.859375 896.65625 106.691406 890.460938 113.179688 888.691406 C 119.667969 887.21875 125.863281 891.050781 127.632812 897.539062 L 127.925781 899.015625 C 129.402344 905.503906 125.566406 911.695312 119.078125 913.464844 C 117.898438 913.464844 117.015625 913.761719 116.128906 913.761719 Z M 1391.324219 884.5625 C 1390.441406 884.5625 1389.851562 884.5625 1388.964844 884.269531 C 1382.480469 883.089844 1378.351562 876.894531 1379.53125 870.40625 L 1379.824219 868.933594 C 1381.003906 862.445312 1387.195312 858.316406 1393.683594 859.496094 C 1400.171875 860.675781 1404.300781 866.867188 1403.121094 873.355469 L 1402.828125 874.832031 C 1401.941406 880.433594 1396.929688 884.5625 1391.324219 884.5625 Z M 104.628906 853.597656 C 98.730469 853.597656 93.71875 849.175781 92.832031 843.277344 L 92.539062 841.800781 C 91.652344 835.3125 96.074219 829.414062 102.5625 828.234375 C 109.050781 827.351562 114.949219 831.773438 116.128906 838.558594 L 116.425781 840.03125 C 117.308594 846.519531 112.886719 852.714844 106.398438 853.597656 C 105.808594 853.597656 105.21875 853.597656 104.628906 853.597656 Z M 1399.878906 824.105469 C 1399.582031 824.105469 1398.992188 824.105469 1398.699219 824.105469 C 1392.210938 823.515625 1387.492188 817.617188 1388.082031 811.132812 L 1388.082031 809.65625 C 1388.671875 803.167969 1394.570312 798.449219 1401.058594 799.039062 C 1407.546875 799.628906 1412.265625 805.527344 1411.675781 812.015625 L 1411.675781 813.492188 C 1411.085938 819.386719 1406.070312 824.105469 1399.878906 824.105469 Z M 99.023438 792.847656 C 92.832031 792.847656 87.523438 787.832031 87.230469 781.640625 L 87.230469 780.164062 C 86.933594 773.675781 91.949219 768.074219 98.433594 767.777344 C 104.921875 767.484375 110.527344 772.496094 110.820312 778.984375 L 110.820312 780.460938 C 111.117188 786.949219 106.101562 792.550781 99.613281 792.847656 C 99.320312 792.847656 99.023438 792.847656 99.023438 792.847656 Z M 1402.828125 761.585938 C 1396.042969 761.585938 1390.441406 757.457031 1390.441406 750.96875 L 1390.441406 749.789062 C 1390.441406 749.789062 1390.441406 749.496094 1390.441406 749.496094 L 1390.441406 748.019531 C 1390.441406 741.53125 1395.75 736.222656 1402.53125 736.222656 C 1409.019531 736.222656 1414.625 741.53125 1414.625 748.019531 L 1414.625 749.199219 C 1414.625 749.199219 1414.625 749.496094 1414.625 749.496094 L 1414.625 750.96875 C 1414.625 757.753906 1409.316406 761.585938 1402.828125 761.585938 Z M 98.730469 731.503906 C 98.433594 731.503906 98.433594 731.503906 98.140625 731.503906 C 91.652344 731.210938 86.34375 725.605469 86.640625 719.117188 L 86.640625 717.644531 C 86.933594 711.15625 92.539062 706.144531 99.023438 706.4375 C 105.511719 706.734375 110.527344 712.335938 110.230469 718.824219 L 110.230469 720.296875 C 110.527344 726.492188 105.21875 731.503906 98.730469 731.503906 Z M 1400.171875 700.246094 C 1393.980469 700.246094 1388.964844 695.527344 1388.375 689.332031 L 1388.375 687.859375 C 1387.785156 681.371094 1392.503906 675.472656 1398.992188 674.882812 C 1405.480469 674.292969 1411.378906 679.011719 1411.96875 685.5 L 1411.96875 686.972656 C 1412.558594 693.460938 1407.839844 699.359375 1401.058594 699.949219 C 1400.761719 700.246094 1400.46875 700.246094 1400.171875 700.246094 Z M 104.332031 670.753906 C 103.742188 670.753906 103.152344 670.753906 102.5625 670.753906 C 96.074219 669.867188 91.359375 663.96875 92.539062 657.1875 L 92.832031 655.710938 C 93.71875 649.226562 99.910156 644.800781 106.398438 645.6875 C 112.886719 646.570312 117.308594 652.765625 116.425781 659.25 L 116.128906 660.726562 C 115.539062 666.328125 110.230469 670.753906 104.332031 670.753906 Z M 1391.621094 639.789062 C 1386.015625 639.789062 1381.003906 635.660156 1379.824219 630.054688 L 1379.53125 628.582031 C 1378.351562 622.09375 1382.480469 615.898438 1388.964844 614.71875 C 1395.453125 613.539062 1401.648438 617.667969 1402.828125 624.15625 L 1403.121094 625.632812 C 1404.300781 632.121094 1400.171875 638.3125 1393.683594 639.492188 C 1393.09375 639.789062 1392.210938 639.789062 1391.621094 639.789062 Z M 115.835938 610.589844 C 114.949219 610.589844 114.066406 610.589844 113.179688 610.296875 C 106.691406 608.820312 102.859375 602.332031 104.332031 595.847656 L 104.628906 594.371094 C 106.101562 587.882812 112.589844 584.050781 119.078125 585.523438 C 125.566406 587 129.402344 593.488281 127.925781 599.972656 L 127.632812 601.449219 C 125.863281 607.050781 121.144531 610.589844 115.835938 610.589844 Z M 1377.464844 580.214844 C 1372.15625 580.214844 1367.4375 576.675781 1365.964844 571.664062 L 1365.667969 570.1875 C 1363.898438 563.996094 1367.4375 557.210938 1373.632812 555.441406 C 1379.824219 553.671875 1386.605469 557.210938 1388.375 563.40625 L 1388.671875 564.878906 C 1390.441406 571.074219 1386.902344 577.855469 1380.414062 579.625 C 1379.53125 580.214844 1378.351562 580.214844 1377.464844 580.214844 Z M 132.644531 551.902344 C 131.464844 551.902344 129.992188 551.609375 128.8125 551.3125 C 122.617188 549.25 119.375 542.46875 121.4375 536.273438 L 121.734375 535.09375 C 123.796875 528.902344 130.582031 525.363281 136.773438 527.425781 C 142.96875 529.492188 146.507812 536.273438 144.148438 542.46875 L 143.558594 543.941406 C 142.082031 548.660156 137.660156 551.902344 132.644531 551.902344 Z M 1357.707031 522.414062 C 1352.988281 522.414062 1348.5625 519.464844 1346.5 514.746094 L 1345.910156 513.566406 C 1343.550781 507.371094 1346.5 500.589844 1352.691406 498.230469 C 1358.886719 495.871094 1365.667969 498.820312 1368.027344 505.011719 L 1368.617188 506.488281 C 1370.976562 512.679688 1368.027344 519.464844 1361.835938 521.824219 C 1360.65625 522.117188 1359.179688 522.414062 1357.707031 522.414062 Z M 155.058594 494.984375 C 153.289062 494.984375 151.8125 494.691406 150.339844 493.804688 C 144.441406 491.152344 141.789062 484.074219 144.441406 478.175781 L 145.03125 476.703125 C 147.6875 470.804688 154.761719 468.148438 160.660156 470.804688 C 166.558594 473.457031 169.214844 480.535156 166.558594 486.433594 L 165.96875 487.613281 C 163.90625 492.332031 159.480469 494.984375 155.058594 494.984375 Z M 1332.636719 466.675781 C 1328.214844 466.675781 1324.085938 464.316406 1322.023438 460.1875 L 1321.433594 459.007812 C 1318.484375 453.109375 1320.84375 446.03125 1326.742188 443.082031 C 1332.636719 440.132812 1339.714844 442.492188 1342.664062 448.390625 L 1343.253906 449.863281 C 1346.203125 455.761719 1343.84375 462.839844 1337.945312 465.789062 C 1336.175781 466.378906 1334.40625 466.675781 1332.636719 466.675781 Z M 182.484375 440.425781 C 180.421875 440.425781 178.355469 439.835938 176.585938 438.953125 C 170.984375 435.710938 168.917969 428.335938 172.164062 422.734375 L 173.046875 421.257812 C 176.292969 415.65625 183.664062 413.589844 189.269531 416.835938 C 194.871094 420.078125 196.9375 427.453125 193.691406 433.054688 L 193.101562 434.234375 C 190.742188 438.070312 186.613281 440.425781 182.484375 440.425781 Z M 1302.558594 413.589844 C 1298.722656 413.589844 1294.59375 411.527344 1292.53125 407.988281 L 1291.644531 406.808594 C 1288.105469 401.203125 1289.875 393.832031 1295.183594 390.292969 C 1300.789062 386.753906 1308.160156 388.523438 1311.699219 393.832031 L 1312.585938 395.011719 C 1316.125 400.613281 1314.355469 407.988281 1308.75 411.527344 C 1306.6875 413 1304.621094 413.589844 1302.558594 413.589844 Z M 215.21875 388.523438 C 212.859375 388.523438 210.5 387.933594 208.4375 386.457031 C 203.128906 382.625 201.652344 375.253906 205.488281 369.945312 L 206.371094 368.765625 C 210.207031 363.457031 217.578125 361.980469 222.886719 365.816406 C 228.195312 369.648438 229.671875 377.023438 225.835938 382.332031 L 224.953125 383.511719 C 222.59375 386.753906 218.757812 388.523438 215.21875 388.523438 Z M 1267.464844 363.457031 C 1263.925781 363.457031 1260.386719 361.980469 1258.027344 358.738281 L 1257.140625 357.558594 C 1253.011719 352.25 1253.898438 344.875 1259.207031 340.746094 C 1264.515625 336.617188 1271.886719 337.503906 1276.015625 342.8125 L 1276.898438 343.992188 C 1281.027344 349.300781 1279.847656 356.671875 1274.542969 360.800781 C 1272.476562 362.570312 1270.117188 363.457031 1267.464844 363.457031 Z M 252.378906 340.15625 C 249.726562 340.15625 247.070312 339.273438 244.710938 337.207031 C 239.699219 333.078125 239.109375 325.414062 243.238281 320.398438 L 244.121094 319.21875 C 248.25 314.207031 255.917969 313.617188 260.929688 318.039062 C 265.945312 322.167969 266.535156 329.835938 262.109375 334.847656 L 261.226562 336.027344 C 259.160156 338.683594 255.917969 340.15625 252.378906 340.15625 Z M 1227.945312 316.859375 C 1224.699219 316.859375 1221.457031 315.679688 1219.097656 313.027344 L 1218.214844 312.140625 C 1213.789062 307.421875 1214.085938 299.753906 1218.804688 295.332031 C 1223.523438 290.90625 1231.1875 291.203125 1235.613281 295.921875 L 1236.792969 297.101562 C 1241.214844 301.820312 1240.921875 309.488281 1236.203125 313.910156 C 1233.546875 315.679688 1230.894531 316.859375 1227.945312 316.859375 Z M 293.960938 295.332031 C 291.011719 295.332031 287.769531 294.152344 285.410156 291.792969 C 280.691406 287.074219 280.984375 279.699219 285.703125 274.984375 L 286.882812 273.804688 C 291.601562 269.085938 299.269531 269.378906 303.695312 274.097656 C 308.414062 278.816406 308.117188 286.484375 303.398438 290.90625 L 302.515625 291.792969 C 300.15625 294.152344 297.207031 295.332031 293.960938 295.332031 Z M 1184.296875 274.097656 C 1181.347656 274.097656 1178.695312 273.214844 1176.335938 271.148438 L 1175.15625 270.265625 C 1170.140625 265.839844 1169.847656 258.46875 1174.269531 253.453125 C 1178.695312 248.441406 1186.066406 248.144531 1191.082031 252.570312 L 1192.261719 253.75 C 1197.273438 258.171875 1197.570312 265.546875 1193.144531 270.558594 C 1190.785156 272.625 1187.542969 274.097656 1184.296875 274.097656 Z M 339.671875 254.632812 C 336.132812 254.632812 332.890625 253.160156 330.53125 250.210938 C 326.402344 245.195312 327.285156 237.527344 332.300781 233.398438 L 333.480469 232.515625 C 338.492188 228.386719 346.160156 229.269531 350.289062 234.285156 C 354.417969 239.296875 353.535156 246.964844 348.519531 251.09375 L 347.339844 251.980469 C 344.980469 253.75 342.328125 254.632812 339.671875 254.632812 Z M 1136.523438 235.464844 C 1134.164062 235.464844 1131.507812 234.578125 1129.445312 233.105469 L 1128.265625 232.21875 C 1122.957031 228.386719 1121.777344 221.015625 1125.609375 215.707031 C 1129.445312 210.398438 1136.816406 209.21875 1142.125 213.050781 L 1143.304688 213.9375 C 1148.613281 217.769531 1149.792969 225.4375 1145.960938 230.449219 C 1143.894531 233.988281 1140.355469 235.464844 1136.523438 235.464844 Z M 388.921875 218.359375 C 385.089844 218.359375 381.253906 216.589844 378.894531 213.050781 C 375.355469 207.449219 376.832031 200.074219 382.140625 196.535156 L 383.320312 195.652344 C 388.921875 192.113281 396.296875 193.585938 399.835938 198.894531 C 403.375 204.5 401.898438 211.871094 396.589844 215.410156 L 395.410156 216.296875 C 393.347656 217.769531 391.28125 218.359375 388.921875 218.359375 Z M 1085.796875 201.84375 C 1083.734375 201.84375 1081.667969 201.253906 1079.605469 200.074219 L 1078.425781 199.191406 C 1072.820312 195.945312 1071.050781 188.574219 1074.296875 182.96875 C 1077.539062 177.367188 1084.914062 175.597656 1090.515625 178.839844 L 1091.695312 179.726562 C 1097.300781 182.96875 1099.070312 190.34375 1095.824219 195.945312 C 1093.761719 199.78125 1089.925781 201.84375 1085.796875 201.84375 Z M 441.417969 186.804688 C 437.289062 186.804688 433.160156 184.445312 430.800781 180.609375 C 427.554688 174.710938 429.914062 167.636719 435.519531 164.390625 L 436.699219 163.800781 C 442.597656 160.558594 449.675781 162.917969 452.917969 168.816406 C 456.164062 174.710938 453.804688 181.789062 447.90625 185.035156 L 446.726562 185.625 C 445.25 186.507812 443.1875 186.804688 441.417969 186.804688 Z M 1031.828125 172.648438 C 1030.058594 172.648438 1028.289062 172.351562 1026.816406 171.46875 L 1025.339844 170.878906 C 1019.441406 167.929688 1016.789062 160.851562 1019.738281 154.953125 C 1022.6875 149.054688 1029.765625 146.402344 1035.664062 149.351562 L 1037.136719 149.941406 C 1043.035156 152.890625 1045.691406 159.96875 1042.742188 165.867188 C 1040.675781 170.289062 1036.253906 172.648438 1031.828125 172.648438 Z M 496.269531 160.558594 C 491.550781 160.558594 487.128906 157.902344 485.359375 153.183594 C 482.703125 146.992188 485.652344 140.207031 491.550781 137.554688 L 493.027344 136.964844 C 499.21875 134.308594 506.003906 137.257812 508.65625 143.453125 C 511.3125 149.644531 508.363281 156.429688 502.167969 159.082031 L 500.695312 159.671875 C 499.515625 160.261719 498.039062 160.558594 496.269531 160.558594 Z M 975.5 149.054688 C 974.027344 149.054688 972.847656 148.761719 971.371094 148.464844 L 969.898438 147.875 C 963.703125 145.515625 960.460938 138.734375 962.820312 132.539062 C 965.179688 126.347656 971.960938 123.101562 978.15625 125.460938 L 979.628906 126.050781 C 985.824219 128.410156 989.066406 135.195312 986.707031 141.386719 C 984.9375 145.8125 980.515625 149.054688 975.5 149.054688 Z M 553.777344 139.324219 C 548.765625 139.324219 544.046875 136.078125 542.570312 131.066406 C 540.507812 124.871094 544.046875 118.089844 550.238281 116.027344 L 551.714844 115.4375 C 557.90625 113.371094 564.691406 116.910156 566.753906 123.101562 C 568.820312 129.296875 565.28125 136.078125 559.085938 138.144531 L 557.613281 138.734375 C 556.136719 139.027344 554.957031 139.324219 553.777344 139.324219 Z M 917.109375 130.476562 C 916.222656 130.476562 915.042969 130.476562 914.160156 130.179688 L 912.683594 129.886719 C 906.195312 128.117188 902.363281 121.628906 904.132812 115.4375 C 905.902344 108.949219 912.390625 105.113281 918.582031 106.882812 L 920.058594 107.179688 C 926.546875 108.949219 930.085938 115.4375 928.609375 121.628906 C 927.429688 126.9375 922.417969 130.476562 917.109375 130.476562 Z M 612.761719 123.691406 C 607.15625 123.691406 602.4375 119.859375 601.257812 114.257812 C 599.785156 107.769531 603.914062 101.574219 610.402344 100.101562 L 611.582031 99.804688 C 618.070312 98.332031 624.558594 102.460938 625.738281 108.949219 C 627.210938 115.4375 623.082031 121.628906 616.59375 123.101562 L 615.121094 123.398438 C 614.53125 123.691406 613.644531 123.691406 612.761719 123.691406 Z M 857.535156 117.792969 C 856.945312 117.792969 856.355469 117.792969 855.472656 117.5 L 853.996094 117.207031 C 847.507812 116.027344 843.085938 110.128906 844.265625 103.640625 C 845.445312 97.152344 851.34375 92.726562 857.832031 93.90625 L 859.304688 94.203125 C 865.792969 95.382812 870.21875 101.28125 869.039062 107.769531 C 868.152344 113.667969 863.140625 117.792969 857.535156 117.792969 Z M 673.21875 113.667969 C 667.320312 113.667969 662.011719 109.242188 661.421875 103.050781 C 660.535156 96.5625 665.253906 90.664062 671.742188 89.777344 L 673.21875 89.484375 C 679.707031 88.597656 685.601562 93.316406 686.488281 99.804688 C 687.371094 106.292969 682.65625 112.191406 676.167969 113.078125 L 674.691406 113.371094 C 674.101562 113.667969 673.511719 113.667969 673.21875 113.667969 Z M 796.785156 110.71875 C 796.488281 110.71875 796.195312 110.71875 795.898438 110.71875 L 794.425781 110.71875 C 787.9375 110.128906 782.925781 104.523438 783.21875 98.035156 C 783.808594 91.546875 789.414062 86.535156 795.898438 86.828125 L 797.375 86.828125 C 803.863281 87.417969 808.875 93.023438 808.582031 99.511719 C 808.285156 106 802.976562 110.71875 796.785156 110.71875 Z M 734.265625 109.539062 C 727.777344 109.539062 722.46875 104.230469 722.46875 97.742188 C 722.171875 91.253906 727.480469 85.648438 733.96875 85.355469 L 735.445312 85.355469 C 741.929688 85.058594 747.535156 90.367188 747.535156 96.855469 C 747.828125 103.34375 742.519531 108.949219 736.035156 109.242188 Z M 734.265625 109.539062 " fill-opacity="1" fill-rule="nonzero"/><g fill="#ffffff" fill-opacity="1"><g transform="translate(216.311436, 965.986378)"><g><path d="M 207.191406 -440.894531 L 20.230469 -440.894531 C 12.558594 -440.894531 12.558594 -430.429688 19.535156 -429.035156 C 42.554688 -424.847656 62.785156 -431.128906 62.785156 -394.152344 C 62.785156 -302.070312 62.785156 -141.617188 62.785156 -49.53125 C 62.785156 -13.253906 42.554688 -18.835938 19.535156 -14.648438 C 12.558594 -13.953125 12.558594 -3.488281 20.230469 -3.488281 L 207.191406 -3.488281 C 548.328125 -3.488281 549.027344 -440.894531 207.191406 -440.894531 Z M 195.332031 -18.136719 L 146.5 -18.136719 C 129.058594 -18.136719 114.410156 -23.71875 114.410156 -48.136719 L 114.410156 -395.550781 C 114.410156 -419.964844 128.363281 -424.847656 145.800781 -424.847656 L 195.332031 -424.847656 C 481.355469 -424.847656 485.542969 -18.136719 195.332031 -18.136719 Z M 195.332031 -18.136719 "/></g></g></g><g fill="#ffffff" fill-opacity="1"><g transform="translate(747.706909, 965.986378)"><g><path d="M 519.726562 -14.648438 C 496.007812 -18.835938 475.777344 -13.253906 475.777344 -49.53125 L 475.777344 -394.152344 C 475.777344 -431.128906 496.007812 -424.847656 519.726562 -429.035156 C 526.703125 -430.429688 526.003906 -440.894531 519.027344 -440.894531 L 424.152344 -440.894531 L 283.929688 -102.550781 C 281.835938 -96.269531 274.863281 -96.269531 272.070312 -102.550781 C 260.210938 -129.058594 248.351562 -156.265625 236.492188 -182.777344 L 166.03125 -343.226562 C 154.171875 -369.738281 142.3125 -396.945312 130.453125 -423.453125 C 125.570312 -434.617188 117.898438 -440.894531 101.851562 -440.894531 L 27.90625 -440.894531 C 20.230469 -440.894531 20.230469 -430.429688 27.207031 -429.035156 C 50.226562 -424.847656 70.460938 -427.640625 70.460938 -391.363281 L 66.972656 -54.414062 C 66.972656 -16.742188 42.554688 -18.835938 19.535156 -14.648438 C 12.558594 -13.953125 12.558594 -2.789062 20.230469 -2.789062 L 140.222656 -2.789062 C 147.894531 -2.789062 147.894531 -13.953125 140.917969 -14.648438 C 117.898438 -18.835938 94.179688 -16.742188 93.480469 -54.414062 L 89.992188 -379.503906 L 231.609375 -54.414062 C 237.886719 -46.742188 243.46875 -42.554688 256.027344 -42.554688 L 277.652344 -42.554688 L 424.152344 -389.269531 L 424.152344 -49.53125 C 424.152344 -13.253906 403.921875 -18.835938 380.898438 -14.648438 C 373.921875 -13.953125 373.921875 -3.488281 381.597656 -3.488281 L 519.027344 -3.488281 C 526.003906 -3.488281 526.703125 -13.953125 519.726562 -14.648438 Z M 519.726562 -14.648438 "/></g></g></g><g fill="#ffffff" fill-opacity="1"><g transform="translate(481.501757, 392.725113)"><g><path d="M 12.671875 0 C 11.429688 0 10.429688 -0.359375 9.671875 -1.078125 C 8.921875 -1.796875 8.546875 -2.75 8.546875 -3.9375 L 8.546875 -65.359375 C 8.546875 -66.535156 8.921875 -67.484375 9.671875 -68.203125 C 10.429688 -68.921875 11.429688 -69.28125 12.671875 -69.28125 L 49.4375 -69.28125 C 50.613281 -69.28125 51.53125 -68.984375 52.1875 -68.390625 C 52.84375 -67.804688 53.171875 -66.992188 53.171875 -65.953125 C 53.171875 -64.898438 52.84375 -64.078125 52.1875 -63.484375 C 51.53125 -62.898438 50.613281 -62.609375 49.4375 -62.609375 L 16.515625 -62.609375 L 16.515625 -38.53125 L 47.46875 -38.53125 C 48.644531 -38.53125 49.5625 -38.234375 50.21875 -37.640625 C 50.875 -37.046875 51.203125 -36.226562 51.203125 -35.1875 C 51.203125 -34.132812 50.875 -33.3125 50.21875 -32.71875 C 49.5625 -32.132812 48.644531 -31.84375 47.46875 -31.84375 L 16.515625 -31.84375 L 16.515625 -6.6875 L 49.4375 -6.6875 C 50.613281 -6.6875 51.53125 -6.40625 52.1875 -5.84375 C 52.84375 -5.289062 53.171875 -4.457031 53.171875 -3.34375 C 53.171875 -2.289062 52.84375 -1.46875 52.1875 -0.875 C 51.53125 -0.289062 50.613281 0 49.4375 0 Z M 12.671875 0 "/></g></g></g><g fill="#ffffff" fill-opacity="1"><g transform="translate(553.339108, 392.725113)"><g><path d="M 30.65625 0.78125 C 25.75 0.78125 21.050781 0.046875 16.5625 -1.421875 C 12.070312 -2.898438 8.484375 -4.882812 5.796875 -7.375 C 4.816406 -8.289062 4.328125 -9.4375 4.328125 -10.8125 C 4.328125 -11.726562 4.585938 -12.53125 5.109375 -13.21875 C 5.628906 -13.90625 6.253906 -14.25 6.984375 -14.25 C 7.828125 -14.25 8.742188 -13.890625 9.734375 -13.171875 C 15.828125 -8.453125 22.769531 -6.09375 30.5625 -6.09375 C 36.195312 -6.09375 40.519531 -7.171875 43.53125 -9.328125 C 46.550781 -11.492188 48.0625 -14.578125 48.0625 -18.578125 C 48.0625 -20.867188 47.335938 -22.71875 45.890625 -24.125 C 44.453125 -25.53125 42.550781 -26.660156 40.1875 -27.515625 C 37.832031 -28.367188 34.65625 -29.253906 30.65625 -30.171875 C 25.289062 -31.421875 20.882812 -32.734375 17.4375 -34.109375 C 14 -35.484375 11.210938 -37.445312 9.078125 -40 C 6.953125 -42.550781 5.890625 -45.894531 5.890625 -50.03125 C 5.890625 -53.957031 6.953125 -57.441406 9.078125 -60.484375 C 11.210938 -63.535156 14.195312 -65.894531 18.03125 -67.5625 C 21.863281 -69.238281 26.238281 -70.078125 31.15625 -70.078125 C 35.738281 -70.078125 40.007812 -69.367188 43.96875 -67.953125 C 47.9375 -66.546875 51.265625 -64.535156 53.953125 -61.921875 C 55.003906 -60.867188 55.53125 -59.722656 55.53125 -58.484375 C 55.53125 -57.554688 55.265625 -56.75 54.734375 -56.0625 C 54.210938 -55.375 53.59375 -55.03125 52.875 -55.03125 C 52.15625 -55.03125 51.207031 -55.394531 50.03125 -56.125 C 46.8125 -58.738281 43.828125 -60.566406 41.078125 -61.609375 C 38.328125 -62.660156 35.019531 -63.1875 31.15625 -63.1875 C 25.71875 -63.1875 21.488281 -62.054688 18.46875 -59.796875 C 15.457031 -57.535156 13.953125 -54.375 13.953125 -50.3125 C 13.953125 -46.84375 15.28125 -44.238281 17.9375 -42.5 C 20.59375 -40.769531 24.671875 -39.25 30.171875 -37.9375 C 36.128906 -36.5 40.8125 -35.171875 44.21875 -33.953125 C 47.632812 -32.742188 50.472656 -30.925781 52.734375 -28.5 C 54.992188 -26.070312 56.125 -22.828125 56.125 -18.765625 C 56.125 -14.898438 55.054688 -11.492188 52.921875 -8.546875 C 50.796875 -5.597656 47.800781 -3.304688 43.9375 -1.671875 C 40.070312 -0.0351562 35.644531 0.78125 30.65625 0.78125 Z M 30.65625 0.78125 "/></g></g></g><g fill="#ffffff" fill-opacity="1"><g transform="translate(628.615676, 392.725113)"><g><path d="M 29.390625 0.484375 C 28.140625 0.484375 27.140625 0.109375 26.390625 -0.640625 C 25.640625 -1.390625 25.265625 -2.390625 25.265625 -3.640625 L 25.265625 -62.40625 L 4.125 -62.40625 C 2.945312 -62.40625 2.03125 -62.695312 1.375 -63.28125 C 0.71875 -63.875 0.390625 -64.726562 0.390625 -65.84375 C 0.390625 -66.957031 0.71875 -67.804688 1.375 -68.390625 C 2.03125 -68.984375 2.945312 -69.28125 4.125 -69.28125 L 54.546875 -69.28125 C 55.722656 -69.28125 56.640625 -68.984375 57.296875 -68.390625 C 57.953125 -67.804688 58.28125 -66.957031 58.28125 -65.84375 C 58.28125 -64.726562 57.953125 -63.875 57.296875 -63.28125 C 56.640625 -62.695312 55.722656 -62.40625 54.546875 -62.40625 L 33.421875 -62.40625 L 33.421875 -3.640625 C 33.421875 -2.390625 33.054688 -1.390625 32.328125 -0.640625 C 31.609375 0.109375 30.628906 0.484375 29.390625 0.484375 Z M 29.390625 0.484375 "/></g></g></g><g fill="#ffffff" fill-opacity="1"><g transform="translate(702.025212, 392.725113)"><g/></g></g><g fill="#ffffff" fill-opacity="1"><g transform="translate(742.024784, 392.725113)"><g><path d="M 49.921875 -6.78125 C 51.109375 -6.78125 52.023438 -6.484375 52.671875 -5.890625 C 53.328125 -5.304688 53.65625 -4.488281 53.65625 -3.4375 C 53.65625 -1.144531 52.410156 0 49.921875 0 L 11.40625 0 C 10.289062 0 9.367188 -0.34375 8.640625 -1.03125 C 7.921875 -1.71875 7.5625 -2.550781 7.5625 -3.53125 C 7.5625 -4.78125 8.019531 -5.863281 8.9375 -6.78125 L 32.625 -32.828125 C 35.90625 -36.492188 38.28125 -39.785156 39.75 -42.703125 C 41.226562 -45.617188 41.96875 -48.550781 41.96875 -51.5 C 41.96875 -55.300781 40.867188 -58.21875 38.671875 -60.25 C 36.472656 -62.28125 33.378906 -63.296875 29.390625 -63.296875 C 26.242188 -63.296875 23.226562 -62.722656 20.34375 -61.578125 C 17.457031 -60.429688 14.578125 -58.675781 11.703125 -56.3125 C 10.710938 -55.53125 9.789062 -55.140625 8.9375 -55.140625 C 8.21875 -55.140625 7.597656 -55.484375 7.078125 -56.171875 C 6.554688 -56.859375 6.296875 -57.691406 6.296875 -58.671875 C 6.296875 -60.046875 6.816406 -61.160156 7.859375 -62.015625 C 10.546875 -64.503906 13.820312 -66.46875 17.6875 -67.90625 C 21.550781 -69.351562 25.515625 -70.078125 29.578125 -70.078125 C 35.804688 -70.078125 40.769531 -68.4375 44.46875 -65.15625 C 48.175781 -61.882812 50.03125 -57.460938 50.03125 -51.890625 C 50.03125 -47.890625 49.128906 -44.054688 47.328125 -40.390625 C 45.523438 -36.722656 42.554688 -32.628906 38.421875 -28.109375 L 18.765625 -6.78125 Z M 49.921875 -6.78125 "/></g></g></g><g fill="#ffffff" fill-opacity="1"><g transform="translate(815.630843, 392.725113)"><g><path d="M 29.484375 0.78125 C 21.554688 0.78125 15.523438 -2.226562 11.390625 -8.25 C 7.265625 -14.28125 5.203125 -23.0625 5.203125 -34.59375 C 5.203125 -46.1875 7.265625 -55 11.390625 -61.03125 C 15.523438 -67.0625 21.554688 -70.078125 29.484375 -70.078125 C 37.410156 -70.078125 43.4375 -67.078125 47.5625 -61.078125 C 51.695312 -55.085938 53.765625 -46.289062 53.765625 -34.6875 C 53.765625 -23.09375 51.695312 -14.28125 47.5625 -8.25 C 43.4375 -2.226562 37.410156 0.78125 29.484375 0.78125 Z M 29.484375 -6 C 34.984375 -6 39.046875 -8.320312 41.671875 -12.96875 C 44.296875 -17.625 45.609375 -24.863281 45.609375 -34.6875 C 45.609375 -44.582031 44.3125 -51.820312 41.71875 -56.40625 C 39.132812 -61 35.054688 -63.296875 29.484375 -63.296875 C 23.984375 -63.296875 19.921875 -60.984375 17.296875 -56.359375 C 14.671875 -51.742188 13.359375 -44.519531 13.359375 -34.6875 C 13.359375 -24.863281 14.671875 -17.625 17.296875 -12.96875 C 19.921875 -8.320312 23.984375 -6 29.484375 -6 Z M 29.484375 -6 "/></g></g></g><g fill="#ffffff" fill-opacity="1"><g transform="translate(889.236901, 392.725113)"><g><path d="M 49.921875 -6.78125 C 51.109375 -6.78125 52.023438 -6.484375 52.671875 -5.890625 C 53.328125 -5.304688 53.65625 -4.488281 53.65625 -3.4375 C 53.65625 -1.144531 52.410156 0 49.921875 0 L 11.40625 0 C 10.289062 0 9.367188 -0.34375 8.640625 -1.03125 C 7.921875 -1.71875 7.5625 -2.550781 7.5625 -3.53125 C 7.5625 -4.78125 8.019531 -5.863281 8.9375 -6.78125 L 32.625 -32.828125 C 35.90625 -36.492188 38.28125 -39.785156 39.75 -42.703125 C 41.226562 -45.617188 41.96875 -48.550781 41.96875 -51.5 C 41.96875 -55.300781 40.867188 -58.21875 38.671875 -60.25 C 36.472656 -62.28125 33.378906 -63.296875 29.390625 -63.296875 C 26.242188 -63.296875 23.226562 -62.722656 20.34375 -61.578125 C 17.457031 -60.429688 14.578125 -58.675781 11.703125 -56.3125 C 10.710938 -55.53125 9.789062 -55.140625 8.9375 -55.140625 C 8.21875 -55.140625 7.597656 -55.484375 7.078125 -56.171875 C 6.554688 -56.859375 6.296875 -57.691406 6.296875 -58.671875 C 6.296875 -60.046875 6.816406 -61.160156 7.859375 -62.015625 C 10.546875 -64.503906 13.820312 -66.46875 17.6875 -67.90625 C 21.550781 -69.351562 25.515625 -70.078125 29.578125 -70.078125 C 35.804688 -70.078125 40.769531 -68.4375 44.46875 -65.15625 C 48.175781 -61.882812 50.03125 -57.460938 50.03125 -51.890625 C 50.03125 -47.890625 49.128906 -44.054688 47.328125 -40.390625 C 45.523438 -36.722656 42.554688 -32.628906 38.421875 -28.109375 L 18.765625 -6.78125 Z M 49.921875 -6.78125 "/></g></g></g><g fill="#ffffff" fill-opacity="1"><g transform="translate(962.842959, 392.725113)"><g><path d="M 38.71875 -35.578125 C 42.914062 -34.398438 46.109375 -32.367188 48.296875 -29.484375 C 50.492188 -26.597656 51.59375 -23.023438 51.59375 -18.765625 C 51.59375 -12.742188 49.5625 -7.992188 45.5 -4.515625 C 41.4375 -1.046875 35.898438 0.6875 28.890625 0.6875 C 24.628906 0.6875 20.550781 -0.03125 16.65625 -1.46875 C 12.757812 -2.914062 9.46875 -4.882812 6.78125 -7.375 C 5.726562 -8.351562 5.203125 -9.46875 5.203125 -10.71875 C 5.203125 -11.695312 5.460938 -12.515625 5.984375 -13.171875 C 6.515625 -13.828125 7.140625 -14.15625 7.859375 -14.15625 C 8.773438 -14.15625 9.691406 -13.796875 10.609375 -13.078125 C 13.628906 -10.648438 16.578125 -8.878906 19.453125 -7.765625 C 22.335938 -6.648438 25.453125 -6.09375 28.796875 -6.09375 C 33.640625 -6.09375 37.320312 -7.207031 39.84375 -9.4375 C 42.375 -11.664062 43.640625 -14.875 43.640625 -19.0625 C 43.640625 -27.519531 38.332031 -31.75 27.71875 -31.75 L 22.5 -31.75 C 21.457031 -31.75 20.625 -32.09375 20 -32.78125 C 19.375 -33.46875 19.0625 -34.269531 19.0625 -35.1875 C 19.0625 -36.101562 19.375 -36.890625 20 -37.546875 C 20.625 -38.203125 21.457031 -38.53125 22.5 -38.53125 L 26.140625 -38.53125 C 31.253906 -38.53125 35.1875 -39.660156 37.9375 -41.921875 C 40.6875 -44.179688 42.0625 -47.441406 42.0625 -51.703125 C 42.0625 -55.429688 40.945312 -58.296875 38.71875 -60.296875 C 36.488281 -62.296875 33.34375 -63.296875 29.28125 -63.296875 C 26.207031 -63.296875 23.226562 -62.722656 20.34375 -61.578125 C 17.457031 -60.429688 14.578125 -58.675781 11.703125 -56.3125 C 10.773438 -55.59375 9.851562 -55.234375 8.9375 -55.234375 C 8.21875 -55.234375 7.597656 -55.5625 7.078125 -56.21875 C 6.554688 -56.875 6.296875 -57.691406 6.296875 -58.671875 C 6.296875 -59.921875 6.816406 -61.035156 7.859375 -62.015625 C 10.546875 -64.503906 13.804688 -66.46875 17.640625 -67.90625 C 21.472656 -69.351562 25.421875 -70.078125 29.484375 -70.078125 C 35.773438 -70.078125 40.769531 -68.488281 44.46875 -65.3125 C 48.175781 -62.132812 50.03125 -57.859375 50.03125 -52.484375 C 50.03125 -48.484375 49.03125 -44.992188 47.03125 -42.015625 C 45.03125 -39.035156 42.257812 -36.890625 38.71875 -35.578125 Z M 38.71875 -35.578125 "/></g></g></g><g fill="#ffffff" fill-opacity="1"><g transform="translate(302.902256, 1123.924477)"><g><path d="M 19.0625 10.28125 L 67.375 -44.78125 L 76.15625 -37.078125 L 27.84375 17.984375 C 22.132812 24.492188 15.273438 28.285156 7.265625 29.359375 C -0.734375 30.441406 -7.570312 28.492188 -13.25 23.515625 C -16.269531 20.867188 -18.867188 17.863281 -21.046875 14.5 L -14.09375 8.359375 C -13.425781 10.828125 -12.195312 13.546875 -10.40625 16.515625 C -8.625 19.484375 -6.847656 21.75 -5.078125 23.3125 C -1.984375 23.84375 1.878906 22.867188 6.515625 20.390625 C 11.148438 17.910156 15.332031 14.539062 19.0625 10.28125 Z M 19.0625 10.28125 "/></g></g></g><g fill="#ffffff" fill-opacity="1"><g transform="translate(366.087577, 1176.871488)"><g><path d="M 51.328125 -43.515625 C 49.429688 -40.628906 48.8125 -37.207031 49.46875 -33.25 C 50.125 -29.289062 51.46875 -25.304688 53.5 -21.296875 C 55.53125 -17.285156 57.519531 -13.253906 59.46875 -9.203125 C 61.414062 -5.160156 62.597656 -0.984375 63.015625 3.328125 C 63.429688 7.648438 62.523438 11.519531 60.296875 14.9375 C 56.765625 20.332031 51.882812 23.4375 45.65625 24.25 C 39.4375 25.070312 32.9375 23.265625 26.15625 18.828125 C 19.382812 14.390625 13.519531 8.707031 8.5625 1.78125 L 11.59375 -2.859375 C 16.101562 4.890625 20.710938 10.304688 25.421875 13.390625 C 30.128906 16.472656 34.550781 17.726562 38.6875 17.15625 C 42.832031 16.582031 46.238281 14.253906 48.90625 10.171875 C 50.707031 7.410156 51.265625 4.179688 50.578125 0.484375 C 49.898438 -3.210938 48.5625 -6.910156 46.5625 -10.609375 C 44.570312 -14.304688 42.609375 -18.054688 40.671875 -21.859375 C 38.742188 -25.660156 37.59375 -29.640625 37.21875 -33.796875 C 36.84375 -37.953125 37.925781 -41.96875 40.46875 -45.84375 C 43.007812 -49.726562 47.097656 -52.21875 52.734375 -53.3125 C 58.378906 -54.414062 64.628906 -52.722656 71.484375 -48.234375 C 75.953125 -45.304688 80.941406 -40.582031 86.453125 -34.0625 L 81.078125 -28 C 74.703125 -37.625 68.351562 -44.503906 62.03125 -48.640625 C 57.519531 -49.234375 53.953125 -47.523438 51.328125 -43.515625 Z M 51.328125 -43.515625 "/></g></g></g><g fill="#ffffff" fill-opacity="1"><g transform="translate(452.852947, 1229.568186)"><g/></g></g><g fill="#ffffff" fill-opacity="1"><g transform="translate(513.062223, 1258.872202)"><g><path d="M 55.390625 -2.609375 L 97.578125 -52.09375 L 109.09375 -48.609375 L 90.6875 27.40625 L 79.171875 23.921875 L 95.53125 -41.25 L 95.09375 -41.390625 L 47.203125 14.265625 L 45.625 13.78125 L 36.34375 -56.296875 L 35.90625 -56.4375 L 14.21875 4.296875 L 9.265625 2.796875 L 36.03125 -70.6875 L 46.546875 -67.515625 Z M 55.390625 -2.609375 "/></g></g></g><g fill="#ffffff" fill-opacity="1"><g transform="translate(651.910274, 1295.313072)"><g><path d="M 1.1875 0.109375 L 43.875 -76.046875 L 45.625 -75.875 L 72.65625 7.15625 L 59.875 5.890625 L 53.140625 -16.09375 L 18.28125 -19.53125 L 7.515625 0.734375 Z M 20.46875 -23.828125 L 51.703125 -20.75 L 39.96875 -60.3125 Z M 20.46875 -23.828125 "/></g></g></g><g fill="#ffffff" fill-opacity="1"><g transform="translate(763.288851, 1302.854095)"><g><path d="M 14.84375 -65.640625 C 15.070312 -62.191406 16.632812 -59.082031 19.53125 -56.3125 C 22.4375 -53.539062 25.90625 -51.164062 29.9375 -49.1875 C 33.976562 -47.207031 37.992188 -45.1875 41.984375 -43.125 C 45.972656 -41.0625 49.429688 -38.425781 52.359375 -35.21875 C 55.296875 -32.019531 56.894531 -28.382812 57.15625 -24.3125 C 57.582031 -17.882812 55.554688 -12.46875 51.078125 -8.0625 C 46.597656 -3.664062 40.316406 -1.203125 32.234375 -0.671875 C 24.148438 -0.148438 16.046875 -1.164062 7.921875 -3.71875 L 7.5625 -9.25 C 15.820312 -5.769531 22.757812 -4.210938 28.375 -4.578125 C 33.988281 -4.953125 38.273438 -6.613281 41.234375 -9.5625 C 44.191406 -12.507812 45.515625 -16.414062 45.203125 -21.28125 C 44.984375 -24.570312 43.488281 -27.488281 40.71875 -30.03125 C 37.945312 -32.570312 34.648438 -34.71875 30.828125 -36.46875 C 27.015625 -38.226562 23.191406 -40.046875 19.359375 -41.921875 C 15.535156 -43.804688 12.222656 -46.289062 9.421875 -49.375 C 6.617188 -52.46875 5.066406 -56.328125 4.765625 -60.953125 C 4.460938 -65.585938 6.238281 -70.039062 10.09375 -74.3125 C 13.945312 -78.582031 19.957031 -80.984375 28.125 -81.515625 C 33.457031 -81.867188 40.285156 -81.097656 48.609375 -79.203125 L 47.96875 -71.109375 C 37.070312 -74.972656 27.859375 -76.65625 20.328125 -76.15625 C 16.359375 -73.925781 14.53125 -70.421875 14.84375 -65.640625 Z M 14.84375 -65.640625 "/></g></g></g><g fill="#ffffff" fill-opacity="1"><g transform="translate(865.501015, 1293.199259)"><g><path d="M 36.390625 -8.125 L 25.203125 -5.625 L 9.40625 -76.3125 C 6.664062 -76.351562 3.992188 -76.082031 1.390625 -75.5 L -13.359375 -68.453125 L -15.875 -76.484375 L 43.421875 -89.71875 L 44.671875 -81.421875 L 28.203125 -81.484375 C 25.597656 -80.898438 23.0625 -80.007812 20.59375 -78.8125 Z M 36.390625 -8.125 "/></g></g></g><g fill="#ffffff" fill-opacity="1"><g transform="translate(962.679166, 1268.675985)"><g><path d="M 9.890625 -3.890625 L -18.703125 -76.5625 L 25.3125 -93.875 L 27.125 -86.09375 L 5.34375 -81.453125 C 1.757812 -80.046875 -1.941406 -77.875 -5.765625 -74.9375 L 4.71875 -48.25 L 29.09375 -57.828125 L 30.75 -53.65625 L 6.375 -44.078125 L 18.96875 -12.03125 L 51.671875 -28.828125 L 53.46875 -21.03125 Z M 9.890625 -3.890625 "/></g></g></g><g fill="#ffffff" fill-opacity="1"><g transform="translate(1058.27334, 1228.147566)"><g><path d="M -0.140625 -43.375 L 19.015625 -11.390625 L 9.109375 -5.453125 L -31.015625 -72.453125 L -9.15625 -85.546875 C -2.34375 -89.628906 4.144531 -91.457031 10.3125 -91.03125 C 16.488281 -90.601562 21.0625 -87.910156 24.03125 -82.953125 C 27 -77.992188 27.601562 -73.035156 25.84375 -68.078125 C 24.082031 -63.128906 20.5625 -58.335938 15.28125 -53.703125 L 62.03125 -37.15625 L 51.140625 -28.703125 L 7.671875 -48.046875 Z M -1.953125 -46.40625 L 4.546875 -50.296875 C 16.679688 -57.566406 19.878906 -65.988281 14.140625 -75.5625 C 13.160156 -77.195312 11.660156 -78.773438 9.640625 -80.296875 C 5.546875 -83.628906 0.5625 -84.453125 -5.3125 -82.765625 C -9.894531 -80.023438 -14.070312 -76.742188 -17.84375 -72.921875 Z M -1.953125 -46.40625 "/></g></g></g><g fill="#ffffff" fill-opacity="1"><g transform="translate(1153.152757, 1167.265959)"><g><path d="M 30.84375 -26.203125 L 22.109375 -18.78125 L 3.328125 -40.890625 L -48.75 -61.046875 L -38.953125 -69.375 L 6.703125 -49.34375 L -6.75 -96.703125 L -2.265625 -100.515625 L 11.671875 -48.765625 Z M 30.84375 -26.203125 "/></g></g></g></svg>